<?xml version="1.0" encoding="UTF-8"?>
<svg width="715.12" height="316.72" version="1.0" viewBox="0 0 536.34 237.54" xmlns="http://www.w3.org/2000/svg">
 <g transform="matrix(.034534 0 0 -.034534 7.1305 232.12)" fill="#081f2c" stroke-width="2.8957">
  <path d="m197 6586c-84-31-153-99-183-183-11-32-13-565-14-3200v-3163h1330v2570c0 2827-5 2611 60 2645 26 13 702 15 6180 15s6154-2 6180-15c65-34 60 182 60-2645v-2570h1330l-2 3178-3 3177-23 42c-28 54-81 107-135 135l-42 23-7350 2c-6169 2-7356 0-7388-11z"/>
  <path d="m12740 4790c-244-45-420-257-420-505 0-138 50-256 149-356 104-105 212-149 362-149 288 0 509 223 509 513 0 213-148 415-350 478-74 23-185 32-250 19zm188-75c85-20 135-48 200-108 92-87 142-201 142-322 0-262-245-474-502-434-131 20-271 118-328 228-87 171-59 369 72 507 65 68 123 104 208 126 81 21 128 22 208 3z"/>
  <path d="m12500 4400c0-29 1-30 50-30h50v-250h70v250h45c43 0 45 1 45 30v30h-260z"/>
  <path d="m12810 4275v-155h59l3 103 3 102 35-103c34-101 35-103 64-100 27 3 31 10 65 103l36 100 3-102 3-103h59v310h-96l-33-100c-18-55-34-100-36-100s-18 45-36 100l-33 100h-96z"/>
  <path d="m4033 2849c-119-17-259-59-358-107-228-111-370-280-437-518-22-78-23-87-23-779 0-799-2-781 85-960 158-329 539-502 1060-482 184 7 300 26 432 71 300 102 500 316 558 597 18 84 20 137 20 500v406l-23 21c-23 22-25 22-483 22h-461l-21-23c-21-22-22-32-22-224 0-188 1-202 21-227l20-26h341l-4-158c-3-139-6-163-27-209-62-139-204-199-451-190-217 7-319 57-382 184l-33 68-3 594c-3 572-2 597 17 661 38 125 132 198 290 226 137 24 274 15 389-28 74-27 165-116 183-179 7-24 21-54 33-67 20-22 20-22 299-20l280 3 20 27c18 25 19 31 7 109-55 378-348 638-791 703-117 17-429 20-536 5z"/>
  <path d="m6458 2839c-386-67-640-270-740-589l-23-75v-740c0-831-3-790 75-950 120-244 353-399 694-462 128-24 474-24 603 0 338 62 571 218 692 462 79 159 76 119 76 945 0 832 4 788-81 958-121 242-355 394-692 453-155 26-450 26-604-2zm512-558c125-39 200-109 233-216 9-30 12-194 12-635 0-672 2-656-77-745-76-86-191-125-373-125-229 0-371 70-428 210-22 54-22 61-25 620-2 380 1 586 8 631 26 154 129 245 313 279 82 14 262 5 337-19z"/>
  <path d="m8746 2802c-19-22-776-2642-776-2688 0-23 8-39 26-53 25-20 39-21 284-21 238 0 260 1 281 19 19 15 35 59 74 197l51 179h778l48-175c39-139 54-180 74-197 25-23 30-23 283-23 246 0 260 1 285 21 18 14 26 30 26 52 0 46-757 2667-777 2689-15 17-39 18-328 18-290 0-313-1-329-18zm454-1412c66-239 120-438 120-442 0-5-110-8-245-8-146 0-245 4-245 9 0 6 54 204 120 441s120 434 120 437c0 25 24-55 130-437z"/>
  <path d="m10461 2794-21-27v-2678l25-24 24-25h685c481 0 692 3 709 11 42 19 47 46 47 275v216l-58 58h-802v1084c0 1081 0 1083-21 1110l-20 26h-548z"/>
 </g>
</svg>
